<svg width="67" height="65" viewBox="0 0 67 65" fill="none" xmlns="http://www.w3.org/2000/svg">
<path fill-rule="evenodd" clip-rule="evenodd" d="M60.4467 30.8146C58.3857 39.1946 58.5206 47.2646 58.2736 55.7646C58.2256 57.4246 59.5296 58.8046 61.1846 58.8546C62.8406 58.9046 64.2227 57.5946 64.2717 55.9346C64.5057 47.8746 64.3166 40.2047 66.2726 32.2447C66.6686 30.6347 65.6836 29.0047 64.0756 28.6147C62.4686 28.2147 60.8417 29.2046 60.4467 30.8146Z" fill="url(#paint0_linear_1182_777)"/>
<path fill-rule="evenodd" clip-rule="evenodd" d="M42.9366 14.5747C28.9546 27.3547 15.7806 43.7947 6.5726 60.3947C5.7696 61.8447 6.29263 63.6748 7.74063 64.4748C9.18863 65.2748 11.0166 64.7547 11.8196 63.3047C20.7236 47.2547 33.4646 31.3547 46.9846 19.0047C48.2066 17.8847 48.2916 15.9847 47.1746 14.7647C46.0576 13.5447 44.1586 13.4547 42.9366 14.5747Z" fill="url(#paint1_linear_1182_777)"/>
<path fill-rule="evenodd" clip-rule="evenodd" d="M39.3947 0.614569C26.6067 -1.49543 13.4257 2.10452 1.7977 7.19452C0.280699 7.86452 -0.411322 9.63448 0.251678 11.1445C0.915678 12.6645 2.6867 13.3545 4.2037 12.6945C14.7937 8.05453 26.7707 4.61449 38.4177 6.53449C40.0517 6.80449 41.5967 5.69452 41.8657 4.06452C42.1357 2.43452 41.0277 0.884569 39.3947 0.614569Z" fill="url(#paint2_linear_1182_777)"/>
<defs>
<linearGradient id="paint0_linear_1182_777" x1="60.9328" y1="28.5259" x2="67.2527" y2="29.592" gradientUnits="userSpaceOnUse">
<stop stop-color="#9DDBDA"/>
<stop offset="1" stop-color="#5AD1BC"/>
</linearGradient>
<linearGradient id="paint1_linear_1182_777" x1="19.934" y1="13.7891" x2="46.4095" y2="27.4877" gradientUnits="userSpaceOnUse">
<stop stop-color="#9DDBDA"/>
<stop offset="1" stop-color="#5AD1BC"/>
</linearGradient>
<linearGradient id="paint2_linear_1182_777" x1="13.7849" y1="-7.03829e-07" x2="20.269" y2="13.2788" gradientUnits="userSpaceOnUse">
<stop stop-color="#9DDBDA"/>
<stop offset="1" stop-color="#5AD1BC"/>
</linearGradient>
</defs>
</svg>
