<svg width="82" height="24" viewBox="0 0 82 24" fill="none" xmlns="http://www.w3.org/2000/svg">
<path d="M22.6773 15.2459C21.3624 15.2459 20.1303 14.6892 19.0108 13.7829L19.2834 12.5035L19.2953 12.4561C19.538 11.094 20.308 8.80751 22.6773 8.80751C24.4541 8.80751 25.8994 10.2528 25.8994 12.0296C25.8934 13.8006 24.4483 15.2459 22.6773 15.2459ZM22.6773 5.54398C19.6505 5.54398 17.3051 7.51044 16.3516 10.7444C14.8944 8.55877 13.7927 5.93493 13.1472 3.72559H9.88947V12.2014C9.88947 13.8717 8.52714 15.2339 6.85681 15.2339C5.18649 15.2339 3.82432 13.8717 3.82432 12.2014L3.82432 3.72559H0.566321L0.566321 12.2014C0.554469 15.6724 3.37979 18.5213 6.85065 18.5213C10.3217 18.5213 13.147 15.6724 13.147 12.2014V10.78C13.7807 12.1007 14.5566 13.4334 15.4984 14.6181L13.5022 24H16.837L18.2822 17.1945C19.5497 18.006 21.0068 18.5154 22.6772 18.5154C26.2487 18.5154 29.157 15.5895 29.157 12.0178C29.157 8.45211 26.2488 5.54398 22.6773 5.54398Z" fill="#5AD1BC"/>
<path d="M39.1018 5.91123L41.2045 14.3871L43.5205 5.91123L46.2806 5.91123L42.7209 18.1601H39.9607L37.7752 9.63082L35.5954 18.1541H32.8354L29.2754 5.90539H32.0356L34.3515 14.3812L36.4541 5.90539H39.1017V5.91139L39.1018 5.91123ZM52.8848 5.54399C49.3014 5.54399 46.3991 8.45212 46.3991 12.0296C46.3991 15.6132 49.3072 18.5155 52.8848 18.5155C56.4683 18.5155 59.3764 15.6132 59.3764 12.0296C59.3764 8.44627 56.4683 5.54399 52.8848 5.54399ZM52.8848 15.85C50.7762 15.85 49.0704 14.1442 49.0704 12.0356C49.0704 9.92696 50.7821 8.22124 52.8848 8.22124C54.9935 8.22124 56.6992 9.92696 56.6992 12.0356C56.6992 14.1383 54.9935 15.85 52.8848 15.85ZM67.26 8.6536C65.4062 8.6536 63.9076 10.158 63.9076 12.0059V18.1541H61.1296V5.91123H63.9076V7.79473C63.9076 7.79473 65.0922 5.90523 67.5266 5.90523H68.3794V8.6536H67.26ZM76.583 11.5559C78.5551 10.4423 79.8939 8.32775 79.8939 5.90523L77.1158 5.90523C77.1158 7.94865 75.4575 9.60712 73.4141 9.60712H73.0408V0L70.2631 0V18.1539H73.0408V12.385H73.3727C73.6451 12.385 74.0005 12.5628 74.1604 12.7818L78.1051 18.1541H81.4338L76.583 11.5559Z" fill="#EAEAEA"/>
</svg>
