<svg width="125" height="52" viewBox="0 0 125 52" fill="none" xmlns="http://www.w3.org/2000/svg">
<g clip-path="url(#clip0_1046_86)">
<path d="M16.5016 11.7931V13.5492C16.5016 13.5492 20.5519 11.6982 24.3943 11.7931C28.2368 11.8879 31.4561 13.5492 31.4561 13.5492V11.7931C31.4561 11.7931 28.3406 10.1028 24.3943 10.0038C20.448 9.90472 16.5016 11.7931 16.5016 11.7931Z" fill="white"/>
<path d="M14.1529 13.0514V12.8385L13.9746 12.9525L0.553918 21.5368L0.5 21.5713V21.6357V23.0664V23.1308L0.553918 23.1653L13.9746 31.7495L14.1529 31.8635V31.6507V30.1099V30.045L14.0983 30.0107L1.98456 22.3619L14.0985 14.6914L14.1529 14.6569V14.5922V13.0514Z" fill="white" stroke="white" stroke-width="0.5"/>
<path d="M33.5139 13.0514V12.8385L33.6921 12.9525L47.1128 21.5368L47.1667 21.5713V21.6357V23.0664V23.1308L47.1128 23.1653L33.6921 31.7495L33.5139 31.8635V31.6507V30.1099V30.045L33.5684 30.0107L45.6822 22.3619L33.5682 14.6914L33.5139 14.6569V14.5922V13.0514Z" fill="white" stroke="white" stroke-width="0.5"/>
<path d="M16.9292 33.4077C19.0416 31.6554 19.5475 28.7894 19.5475 28.7894L21.1968 33.1559C21.1968 33.1559 19.8983 33.9575 18.3588 34.4155C15.1399 35.3731 12.7258 35.0717 12.7258 35.0717C12.7258 35.0717 15.3301 34.7341 16.9292 33.4077Z" fill="white"/>
<path d="M35.7826 31.1058C34.5625 30.4293 33.4142 28.3087 33.4142 28.3087L33.1271 30.4293C33.1271 30.4293 33.1501 31.4484 35.1481 32.1126C37.1462 32.7769 38.9763 32.1126 38.9763 32.1126C38.9763 32.1126 37.0027 31.7824 35.7826 31.1058Z" fill="white" stroke="white"/>
<path d="M32.4101 23.0775C32.4101 23.0775 31.9887 38.4189 38.0439 37.7898C41.5014 37.4306 44.9336 32.0865 44.9336 32.0865C44.9336 32.0865 44.2471 41.4255 35.9267 41.9674C23.6544 42.7665 20.353 28.5992 20.353 28.5992" stroke="white" stroke-width="1.8"/>
<path d="M71.8878 35H61.3038V17.648H71.8878V19.808H63.6558V25.232H71.0718V27.32H63.6558V32.816H71.8878V35ZM77.216 35H74.96V17.336H77.216V35ZM86.657 35H80.921V17.648H86.561C91.745 17.648 95.249 21.152 95.249 26.336C95.249 31.496 91.793 35 86.657 35ZM86.393 19.808H83.273V32.816H86.489C90.353 32.816 92.801 30.32 92.801 26.336C92.801 22.304 90.353 19.808 86.393 19.808ZM102.921 35.288C99.4653 35.288 97.0893 32.792 97.0893 29.144C97.0893 25.472 99.4173 22.928 102.825 22.928C106.161 22.928 108.345 25.232 108.345 28.712V29.552L99.2733 29.576C99.4413 32.048 100.737 33.416 102.969 33.416C104.721 33.416 105.873 32.696 106.257 31.352H108.369C107.793 33.872 105.825 35.288 102.921 35.288ZM102.825 24.824C100.857 24.824 99.6093 26 99.3213 28.064H106.089C106.089 26.12 104.817 24.824 102.825 24.824ZM113.755 35L109.027 23.264H111.427L113.995 29.816C114.403 30.92 114.739 31.904 114.931 32.624C115.123 31.856 115.507 30.848 115.915 29.816L118.531 23.264H120.883L115.987 35H113.755Z" fill="white"/>
</g>
<defs>
<clipPath id="clip0_1046_86">
<rect width="150" height="52" fill="white" transform="translate(0.5)"/>
</clipPath>
</defs>
</svg>
