<svg width="64" height="51" viewBox="0 0 64 51" fill="none" xmlns="http://www.w3.org/2000/svg">
<path d="M20.0727 0C6.25455 11.2232 0 24.3412 0 35.1271C0 45.0385 6.4 50.2857 14.6909 50.2857C22.9818 50.2857 29.0909 44.4555 29.0909 36.4389C29.0909 29.2969 23.7091 23.9039 16.1455 23.1752C17.0182 16.7619 20.3636 10.9317 25.8909 4.66418L20.0727 0ZM54.9818 0C41.1636 11.2232 34.9091 24.3412 34.9091 35.1271C34.9091 45.0385 41.3091 50.2857 49.6 50.2857C57.8909 50.2857 64 44.4555 64 36.4389C64 29.2969 58.6182 23.9039 51.0545 23.1752C51.9273 16.7619 55.2727 10.9317 60.8 4.66418L54.9818 0Z" fill="white" fill-opacity="0.12"/>
</svg>
