<svg width="36" height="26" viewBox="0 0 36 26" fill="none" xmlns="http://www.w3.org/2000/svg">
<path d="M27.639 15.0573C25.9953 15.0573 24.4552 14.3613 23.0558 13.2285L23.3966 11.6293L23.4114 11.57C23.7148 9.86728 24.6774 7.00919 27.639 7.00919C29.8601 7.00919 31.6667 8.81582 31.6667 11.0369C31.6592 13.2506 29.8527 15.0573 27.639 15.0573ZM27.639 2.92975C23.8555 2.92975 20.9237 5.38784 19.7318 9.43034C17.9103 6.69827 16.5331 3.41844 15.7262 0.656738L11.6541 0.656738V11.2516C11.6541 13.3395 9.95114 15.0422 7.86322 15.0422C5.77531 15.0422 4.07257 13.3395 4.07257 11.2516V0.656738L4.64403e-05 0.656738L4.64403e-05 11.2516C-0.0147685 15.5904 3.51692 19.1515 7.85552 19.1515C12.1943 19.1515 15.726 15.5904 15.726 11.2516V9.47479C16.5181 11.1258 17.488 12.7916 18.6653 14.2725L16.1701 26H20.3386L22.145 17.493C23.7294 18.5074 25.5509 19.1442 27.6388 19.1442C32.1032 19.1442 35.7386 15.4867 35.7386 11.0221C35.7386 6.56494 32.1034 2.92975 27.639 2.92975Z" fill="#5AD1BC"/>
</svg>
